<?xml version="1.0" standalone="no"?>
<!DOCTYPE svg PUBLIC "-//W3C//DTD SVG 20010904//EN"
 "http://www.w3.org/TR/2001/REC-SVG-20010904/DTD/svg10.dtd">
<svg version="1.0" xmlns="http://www.w3.org/2000/svg"
 width="1144.000000pt" height="947.000000pt" viewBox="0 0 1144.000000 947.000000"
 preserveAspectRatio="xMidYMid meet">

<g transform="translate(0.000000,947.000000) scale(0.100000,-0.100000)"
fill="#000000" stroke="none">
<path d="M2618 9343 c-19 -5 -43 -52 -57 -113 -24 -105 -6 -160 54 -160 47 0
61 19 68 90 7 67 16 87 58 141 16 20 29 40 29 43 0 7 -126 6 -152 -1z"/>
<path d="M2807 9317 c-39 -55 -67 -167 -53 -220 8 -34 58 -54 91 -37 27 14 31
23 40 90 9 60 29 101 72 144 20 20 34 38 32 40 -2 2 -39 6 -82 9 l-77 5 -23
-31z"/>
<path d="M2433 9313 c-62 -19 -73 -40 -73 -142 0 -80 17 -111 61 -111 48 0 69
30 69 100 0 62 18 120 47 152 15 17 14 18 -18 17 -19 -1 -57 -8 -86 -16z"/>
<path d="M3034 9283 c-35 -47 -74 -152 -74 -203 0 -49 32 -75 79 -65 28 6 32
13 55 88 20 63 36 94 70 132 24 27 42 53 40 57 -5 7 -95 28 -123 28 -10 0 -31
-17 -47 -37z"/>
<path d="M2239 9218 c-66 -51 -82 -78 -69 -113 6 -16 17 -33 23 -37 20 -13 74
-9 87 7 12 15 20 175 8 175 -3 0 -26 -15 -49 -32z"/>
<path d="M2052 8927 c-6 -17 -14 -51 -18 -74 l-7 -43 117 -2 c64 -1 135 -2
158 -3 l42 0 14 68 c7 38 12 70 10 72 -2 1 -71 5 -154 8 l-150 7 -12 -33z"/>
<path d="M2523 8864 c-6 -46 -6 -67 1 -70 6 -2 83 -10 171 -19 358 -35 508
-70 738 -174 48 -22 69 -27 72 -18 3 6 9 30 14 52 5 22 13 49 16 61 6 19 -3
25 -77 57 -185 79 -320 117 -483 138 -153 20 -350 39 -394 39 l-48 0 -10 -66z"/>
<path d="M2015 8760 c-6 -10 -28 -131 -24 -134 2 -2 74 -6 161 -10 l156 -7 11
51 c14 66 14 90 -1 95 -20 6 -299 11 -303 5z"/>
<path d="M2505 8741 c-8 -13 -27 -132 -22 -137 3 -3 78 -12 167 -20 308 -27
485 -67 698 -158 46 -20 89 -36 96 -36 13 0 53 126 43 136 -13 13 -298 122
-357 137 -122 30 -616 91 -625 78z"/>
<path d="M3716 8555 c-22 -86 -21 -91 16 -106 17 -7 67 -37 110 -66 43 -29 80
-53 82 -53 2 0 7 21 10 48 4 26 9 61 13 79 5 31 2 34 -65 78 -39 25 -75 45
-80 45 -5 0 -19 9 -32 20 -13 11 -26 20 -30 20 -4 0 -15 -29 -24 -65z"/>
<path d="M1975 8570 c-6 -9 -26 -132 -23 -135 2 -2 75 -5 163 -7 l160 -3 13
64 c7 35 10 67 6 70 -3 3 -56 7 -117 9 -62 1 -132 3 -155 5 -24 1 -45 0 -47
-3z"/>
<path d="M2461 8500 c-17 -80 -15 -88 22 -94 17 -3 91 -10 162 -16 273 -24
452 -67 668 -161 48 -22 89 -39 91 -39 7 0 38 141 32 147 -11 11 -121 55 -246
99 -135 47 -269 72 -526 98 -208 22 -190 25 -203 -34z"/>
<path d="M3665 8350 c-10 -39 -16 -72 -14 -74 2 -1 40 -24 84 -50 44 -26 97
-58 118 -72 43 -28 43 -29 56 66 9 60 8 66 -11 80 -45 33 -192 120 -204 120
-6 0 -19 -31 -29 -70z"/>
<path d="M1936 8364 c-3 -9 -9 -39 -12 -68 l-6 -53 92 -6 c51 -4 124 -7 161
-7 l67 0 11 50 c19 87 19 86 -56 93 -38 4 -109 7 -159 7 -75 0 -93 -3 -98 -16z"/>
<path d="M2423 8293 c-6 -37 -8 -71 -4 -74 3 -3 69 -11 146 -18 170 -15 357
-44 445 -70 83 -24 311 -110 328 -124 18 -14 27 1 42 75 8 35 9 62 4 67 -13
12 -258 106 -324 125 -67 19 -270 52 -405 65 -55 6 -127 13 -161 16 l-61 6
-10 -68z"/>
<path d="M3619 8166 c-9 -35 -13 -69 -10 -74 3 -5 31 -24 61 -43 30 -18 83
-52 117 -76 l63 -42 10 38 c5 21 13 58 16 82 l6 44 -106 64 c-59 34 -115 65
-124 68 -15 3 -21 -7 -33 -61z"/>
<path d="M1892 8125 c-7 -37 -11 -69 -9 -71 2 -2 60 -7 128 -10 68 -3 139 -7
157 -9 26 -2 33 1 37 19 15 75 23 121 21 124 -2 1 -75 5 -163 9 l-159 6 -12
-68z"/>
<path d="M2401 8148 c-5 -13 -12 -46 -15 -73 l-7 -50 173 -18 c300 -31 410
-56 638 -148 52 -21 101 -39 109 -41 19 -4 54 123 38 138 -19 18 -264 112
-350 134 -78 19 -310 54 -442 65 -38 3 -85 8 -103 11 -27 4 -34 1 -41 -18z"/>
<path d="M3585 8028 c-37 -114 -34 -131 33 -168 31 -18 85 -52 119 -76 34 -24
64 -40 67 -36 10 16 37 135 33 146 -6 16 -221 146 -242 146 -3 0 -7 -6 -10
-12z"/>
<path d="M1865 7979 c-3 -13 -6 -46 -8 -73 -2 -58 -15 -54 172 -57 l136 -2 13
67 c8 37 12 69 10 71 -2 2 -74 7 -160 11 l-157 7 -6 -24z"/>
<path d="M2366 7962 c-3 -6 -9 -38 -12 -71 -6 -55 -5 -61 12 -61 33 0 366 -39
429 -51 79 -14 224 -61 359 -116 60 -24 110 -42 111 -41 1 2 9 33 18 70 11 50
12 70 3 76 -30 24 -302 123 -390 142 -154 34 -519 69 -530 52z"/>
<path d="M3525 7779 c-9 -39 -15 -72 -13 -73 1 -2 32 -20 68 -41 36 -22 85
-53 110 -70 25 -17 50 -34 56 -38 8 -5 18 18 29 68 l18 74 -24 20 c-30 25
-207 131 -218 131 -5 0 -16 -32 -26 -71z"/>
<path d="M1836 7794 c-4 -10 -9 -44 -13 -76 l-6 -58 104 0 c57 0 127 -3 155
-6 l51 -6 11 43 c16 62 20 99 13 103 -3 2 -74 7 -157 10 -138 7 -152 6 -158
-10z"/>
<path d="M2321 7715 c-6 -37 -10 -69 -7 -72 2 -2 48 -8 102 -13 321 -30 511
-74 718 -169 38 -17 72 -31 76 -31 10 0 43 127 36 138 -9 15 -215 99 -313 127
-94 28 -359 69 -509 80 l-90 7 -13 -67z"/>
<path d="M3495 7648 c-33 -101 -32 -135 6 -156 56 -31 184 -115 190 -125 4 -5
11 -1 17 9 12 23 38 142 31 147 -13 11 -228 137 -233 137 -4 0 -8 -6 -11 -12z"/>
<path d="M1805 7608 c-11 -32 -23 -124 -17 -129 4 -4 74 -8 157 -10 l150 -4
13 63 c8 35 10 67 6 72 -5 4 -75 10 -157 14 -116 5 -148 4 -152 -6z"/>
<path d="M2297 7583 c-3 -5 -8 -36 -12 -70 -8 -73 -22 -66 160 -83 252 -24
451 -74 643 -161 36 -16 71 -28 77 -25 10 4 42 134 34 140 -11 9 -203 86 -259
104 -98 32 -246 60 -433 82 -188 22 -204 23 -210 13z"/>
<path d="M3446 7458 c-2 -7 -10 -40 -17 -72 -12 -55 -12 -60 5 -70 10 -6 61
-39 114 -73 53 -35 99 -63 103 -63 14 0 43 131 33 148 -10 15 -211 141 -227
142 -4 0 -9 -6 -11 -12z"/>
<path d="M1855 7340 c-13 -14 -19 -42 -22 -107 -5 -81 -3 -93 20 -140 27 -52
121 -162 131 -153 3 4 0 37 -6 75 -6 39 -8 120 -5 182 5 102 3 115 -15 138
-24 31 -77 34 -103 5z"/>
<path d="M2041 7311 c-21 -14 -29 -102 -22 -254 8 -159 9 -162 110 -201 l63
-25 -7 27 c-19 75 -27 150 -30 287 -3 128 -6 151 -21 162 -20 15 -72 17 -93 4z"/>
<path d="M2245 7290 c-42 -16 -49 -49 -42 -202 4 -82 14 -173 24 -213 l18 -70
83 -13 c46 -8 86 -11 89 -8 3 3 -2 12 -11 21 -34 34 -57 144 -63 302 -5 122
-9 156 -22 167 -22 19 -53 26 -76 16z"/>
<path d="M2425 7255 c-23 -22 -25 -31 -25 -117 1 -140 28 -319 53 -351 8 -10
40 -17 96 -22 l83 -7 -19 29 c-48 71 -73 189 -73 346 0 94 -2 109 -20 127 -27
27 -66 25 -95 -5z"/>
<path d="M3407 7272 c-3 -4 -13 -36 -22 -72 -16 -61 -16 -65 0 -75 9 -5 57
-36 106 -67 50 -32 94 -58 99 -58 14 0 39 53 46 97 l6 40 -93 60 c-115 74
-136 85 -142 75z"/>
<path d="M2617 7242 c-14 -15 -17 -40 -17 -125 0 -119 19 -227 55 -304 21 -47
27 -52 59 -55 l36 -3 -15 -29 c-8 -15 -15 -35 -15 -42 0 -8 -4 -14 -9 -14 -4
0 -16 -21 -26 -47 -10 -27 -33 -78 -51 -114 -19 -36 -34 -69 -34 -74 0 -5 -10
-29 -22 -54 -33 -69 -36 -149 -7 -203 27 -49 43 -68 58 -68 5 0 12 -3 15 -8 2
-4 -55 -2 -127 5 -73 6 -147 12 -164 12 l-33 1 0 -1007 1 -1008 87 -77 c48
-42 143 -126 211 -187 69 -61 126 -109 128 -107 2 2 3 533 3 1180 l0 1176 24
0 c13 0 29 7 36 15 7 8 18 15 25 15 21 0 71 67 90 119 9 25 24 62 33 81 9 19
16 37 17 40 0 3 3 10 7 16 19 29 48 125 42 135 -4 7 -3 9 3 6 5 -3 18 11 27
31 16 33 76 188 76 197 0 2 -59 4 -132 4 -122 2 -133 3 -153 24 -61 63 -93
160 -105 314 -5 65 -10 123 -10 130 -1 40 -83 58 -113 25z m229 -875 c31 -34
38 -66 25 -115 -15 -56 -60 -92 -114 -92 -46 0 -103 33 -111 65 -18 65 6 133
56 162 37 22 115 11 144 -20z"/>
<path d="M2706 6339 c-21 -16 -26 -29 -26 -63 0 -65 46 -96 105 -72 57 24 72
82 34 130 -26 33 -75 35 -113 5z"/>
<path d="M2252 6770 c0 -14 2 -19 5 -12 2 6 2 18 0 25 -3 6 -5 1 -5 -13z"/>
<path d="M2131 6634 c0 -11 3 -14 6 -6 3 7 2 16 -1 19 -3 4 -6 -2 -5 -13z"/>
<path d="M2105 6250 c3 -5 8 -10 11 -10 2 0 4 5 4 10 0 6 -5 10 -11 10 -5 0
-7 -4 -4 -10z"/>
<path d="M3285 1590 c-163 -26 -301 -97 -407 -209 -80 -83 -136 -190 -164
-307 -24 -104 -16 -266 19 -367 64 -185 201 -315 385 -366 181 -50 375 -51
613 -4 l139 27 45 70 c25 39 45 79 45 88 0 29 -41 21 -80 -14 -121 -108 -424
-154 -608 -92 -87 29 -180 91 -241 160 -136 155 -205 427 -152 602 43 141 163
260 312 307 65 20 100 25 190 25 156 0 255 -35 364 -130 79 -68 101 -48 64 58
-22 63 -27 69 -73 90 -114 55 -317 83 -451 62z m310 -39 c39 -10 92 -27 119
-37 46 -18 50 -23 72 -83 13 -35 23 -65 21 -67 -2 -2 -15 8 -29 21 -133 123
-330 177 -517 141 -122 -23 -200 -63 -280 -143 -151 -152 -184 -329 -104 -572
39 -121 80 -189 168 -276 93 -94 174 -138 290 -160 103 -20 175 -19 296 5 114
22 206 61 262 110 21 18 39 31 41 29 2 -2 -15 -34 -39 -70 l-42 -65 -139 -27
c-238 -46 -488 -36 -654 28 -132 51 -259 190 -309 340 -88 265 18 576 248 729
83 55 124 74 216 97 99 25 287 25 380 0z"/>
<path d="M5787 1584 c-71 -13 -206 -65 -239 -93 -7 -6 -36 -29 -64 -51 -92
-71 -166 -184 -215 -330 -80 -237 -34 -472 122 -630 99 -101 200 -151 346
-172 102 -15 238 0 342 36 254 89 428 333 447 625 13 196 -41 346 -165 464
-148 139 -348 192 -574 151z m308 -29 c146 -37 286 -145 352 -270 33 -64 63
-185 63 -258 0 -69 -28 -215 -54 -279 -82 -202 -242 -348 -440 -399 -93 -24
-280 -26 -357 -3 -276 82 -443 342 -400 625 37 241 173 439 369 538 114 58
335 79 467 46z"/>
<path d="M5680 1487 c-127 -43 -248 -153 -301 -272 -26 -59 -37 -218 -21 -305
29 -156 135 -320 272 -421 254 -188 610 -95 751 196 37 76 42 97 46 173 14
243 -126 466 -362 582 -148 73 -267 88 -385 47z m296 -32 c195 -73 341 -215
398 -387 50 -149 44 -265 -21 -390 -85 -163 -249 -262 -432 -260 -151 2 -250
50 -374 182 -119 126 -176 268 -177 437 0 185 115 348 296 422 76 31 223 29
310 -4z"/>
<path d="M4007 1574 c-4 -4 -7 -18 -7 -31 0 -17 6 -23 23 -23 54 -1 52 25 55
-564 3 -595 5 -576 -54 -576 -22 0 -25 -4 -22 -28 l3 -27 170 0 170 0 3 27 c3
23 -1 28 -18 28 -12 0 -30 5 -41 10 -18 10 -19 24 -19 270 l0 260 305 0 305 0
0 -252 c0 -139 -4 -259 -9 -266 -4 -7 -21 -16 -37 -21 -22 -6 -29 -13 -29 -32
l0 -24 170 0 170 0 0 24 c0 18 -8 26 -35 35 l-35 11 0 555 0 555 35 11 c43 14
54 50 18 59 -13 3 -90 4 -173 3 l-150 -3 0 -25 c0 -19 6 -26 25 -28 50 -7 50
-8 50 -268 l0 -244 -305 0 -305 0 0 245 c0 231 1 245 19 255 11 5 29 10 41 10
17 0 21 5 18 28 l-3 27 -166 3 c-91 1 -168 -1 -172 -4z m318 -29 c-5 -2 -22
-6 -36 -9 -45 -10 -49 -37 -49 -306 l0 -250 330 0 330 0 0 263 c0 288 0 289
-60 300 -14 2 47 4 135 5 100 0 147 -3 126 -8 -18 -4 -37 -14 -42 -22 -5 -7
-9 -261 -9 -563 0 -603 -1 -593 58 -597 15 -1 -36 -5 -113 -8 -133 -5 -216 -1
-155 8 14 2 33 11 43 19 15 15 17 42 17 295 l0 278 -331 0 -330 0 3 -274 c3
-250 5 -276 22 -294 10 -12 30 -23 45 -25 14 -2 -46 -4 -134 -4 -88 0 -149 2
-135 4 14 3 33 12 43 20 16 15 17 55 17 567 0 603 1 590 -58 599 -15 2 45 4
133 5 88 0 156 -1 150 -3z"/>
<path d="M6604 1565 c-10 -25 3 -43 33 -47 53 -6 53 -7 50 -586 -2 -582 1
-552 -60 -552 -25 0 -28 -3 -25 -28 l3 -27 171 -3 c137 -2 173 0 183 12 17 21
2 46 -28 46 -15 0 -32 5 -39 12 -9 9 -12 148 -12 564 0 602 -4 564 55 564 27
0 40 26 24 46 -18 21 -347 20 -355 -1z m306 -25 c-18 -5 -40 -16 -47 -26 -18
-25 -19 -1080 -1 -1119 6 -14 23 -28 37 -31 14 -3 31 -7 36 -9 6 -2 -64 -3
-155 -3 -103 0 -152 3 -132 8 19 4 39 13 45 19 18 18 22 1097 4 1131 -8 17
-24 27 -47 31 -19 4 39 6 130 7 106 0 153 -3 130 -8z"/>
<path d="M7052 1567 c-17 -20 -4 -47 22 -47 53 -1 51 25 51 -570 0 -596 3
-569 -53 -570 -27 0 -39 -24 -22 -45 18 -22 322 -22 340 0 18 21 8 36 -30 49
-46 15 -49 36 -49 304 l0 212 88 0 87 0 111 -167 c202 -305 283 -389 401 -414
127 -27 342 38 342 103 0 29 -26 32 -80 9 -156 -67 -248 4 -506 392 l-94 139
38 28 c98 71 152 164 159 278 9 142 -47 233 -176 284 -52 20 -76 22 -337 26
-237 3 -282 2 -292 -11z m650 -50 c98 -48 145 -135 135 -252 -7 -97 -71 -201
-158 -260 -24 -16 -46 -30 -48 -32 -3 -2 176 -277 201 -308 5 -5 25 -32 45
-60 20 -27 59 -76 85 -107 88 -102 199 -135 303 -89 24 11 47 16 50 11 10 -16
-79 -58 -158 -75 -94 -19 -176 -8 -244 32 -51 29 -158 160 -266 323 -42 63
-80 120 -85 125 -5 6 -21 32 -37 59 l-28 48 -81 -6 c-45 -3 -91 -5 -103 -6
l-23 0 0 -244 c0 -267 6 -303 48 -312 15 -3 32 -7 37 -9 6 -2 -62 -3 -150 -3
-110 0 -151 3 -130 9 16 5 36 16 42 26 19 25 18 1087 0 1123 -7 15 -25 28 -42
32 -17 3 101 5 260 5 l290 -2 57 -28z"/>
<path d="M7290 1239 l0 -281 123 4 c128 5 157 13 218 60 88 67 105 216 39 343
-19 38 -51 81 -70 96 -45 36 -134 59 -232 59 l-78 0 0 -281z m196 246 c67 -9
125 -53 161 -121 38 -73 48 -137 32 -212 -24 -116 -125 -176 -286 -170 l-78 3
-3 249 c-2 174 1 252 9 256 11 8 96 5 165 -5z"/>
</g>
</svg>
